<svg xmlns="http://www.w3.org/2000/svg" viewBox="0 0 64 64">
  <rect x="1.5" y="1.5" width="61" height="61" rx="14" fill="#FCFBF7" stroke="#DDD6C8" stroke-width="1.5"/>
  <path fill="#E85D3D" d="M12 15h40v7H12z M12 22a5 5 0 0 0 10 0z M22 22a5 5 0 0 0 10 0z M32 22a5 5 0 0 0 10 0z M42 22a5 5 0 0 0 10 0z"/>
  <path fill="none" stroke="#E85D3D" stroke-width="4" stroke-linecap="round" stroke-linejoin="round" d="M15 30v20h34V30"/>
  <path fill="#E85D3D" d="M32 46.6l-6-5.9a3.9 3.9 0 0 1 0-5.6 4.1 4.1 0 0 1 5.6 0l.4.4.4-.4a4.1 4.1 0 0 1 5.6 0 3.9 3.9 0 0 1 0 5.6Z"/>
</svg>
