<svg xmlns="http://www.w3.org/2000/svg" viewBox="0 0 64 64" role="img" aria-label="Flavorites Business">
  <defs>
    <linearGradient id="sg" x1="10" y1="4" x2="56" y2="62" gradientUnits="userSpaceOnUse">
      <stop stop-color="#FF7447"/>
      <stop offset="1" stop-color="#E85D3A"/>
    </linearGradient>
  </defs>
  <rect x="1.5" y="1.5" width="61" height="61" rx="14" fill="#FCFBF7" stroke="#DDD6C8" stroke-width="1.5"/>
  <g transform="matrix(.58 0 0 .58 13.44 24.5)">
    <path fill="url(#sg)" d="M32 5c-9.8 0-16.9 8.7-16.9 20.6 0 7.2 3.1 12.7 8.2 15.6 1.9 1.1 3.1 3.1 3.1 5.3V61h11.2V46.5c0-2.2 1.2-4.2 3.1-5.3 5.1-2.9 8.2-8.4 8.2-15.6C48.9 13.7 41.8 5 32 5Z"/>
    <path fill="#B4432A" opacity=".4" d="M39.7 11.6c3.4 3.5 5.4 8.5 5.4 14.2 0 6.2-2.5 10.6-6.6 13.1-2.4 1.5-4 4.2-4 7V61h3.1V46.5c0-2.2 1.2-4.2 3.1-5.3 5.1-2.9 8.2-8.4 8.2-15.6 0-6-1.8-10.9-5-14.5-1.1-1.3-3.2-.8-4.2.5Z"/>
    <path fill="#FCFBF7" transform="translate(32 26.3) scale(.7) translate(-32 -26.3)" d="M32 36.9 21.7 26.6c-3-3-3-7.9 0-10.9 2.9-2.9 7.5-3 10.3-.3 2.8-2.7 7.4-2.6 10.3.3 3 3 3 7.9 0 10.9L32 36.9Z"/>
  </g>
  <path fill="#E85D3D" d="M12 10h40v7H12z M12 17a5 5 0 0 0 10 0z M22 17a5 5 0 0 0 10 0z M32 17a5 5 0 0 0 10 0z M42 17a5 5 0 0 0 10 0z"/>
</svg>
