<svg xmlns="http://www.w3.org/2000/svg" viewBox="0 0 64 64" role="img" aria-label="Flavorites Business">
  <defs>
    <linearGradient id="bg" x1="10" y1="4" x2="56" y2="62" gradientUnits="userSpaceOnUse">
      <stop stop-color="#FB793F"/><stop offset="1" stop-color="#FA5C36"/>
    </linearGradient>
    <clipPath id="tile"><rect width="64" height="64" rx="14"/></clipPath>
  </defs>
  <g clip-path="url(#tile)">
    <rect width="64" height="64" fill="url(#bg)"/>
    <path fill="#F1F2EF" d="M31.4 6.2 33.2 6.3 35.4 7.0 37.0 8.1 38.9 10.2 40.4 12.8 42.0 16.6 42.9 20.3 43.2 23.3 43.2 27.1 42.2 31.5 40.4 34.5 35.7 39.6 35.1 40.6 34.5 42.4 34.3 44.1 34.2 49.0 35.0 62.4 34.9 64.0 29.1 63.9 29.9 49.4 29.9 44.5 29.6 42.4 28.7 40.0 24.3 35.3 22.5 32.6 21.7 30.8 21.1 28.9 20.8 25.6 20.9 22.6 21.4 19.3 22.5 15.4 23.6 12.8 25.7 9.5 27.2 8.0 29.1 6.8 31.3 6.2Z"/>
    <path fill="#F66B3C" d="M28.5 16.9 30.2 16.9 31.3 17.4 32.0 18.1 34.0 16.9 35.9 17.0 38.0 18.2 39.0 19.9 39.2 22.0 38.2 24.8 34.7 28.8 32.2 30.7 31.7 30.7 30.2 29.5 27.5 26.9 25.8 24.7 25.0 22.7 24.9 20.8 25.7 18.7 26.8 17.7 28.5 17.0Z"/>
    <rect x="15" y="45.5" width="34" height="12.5" rx="6.25" fill="#F1F2EF"/>
    <text x="32" y="55" text-anchor="middle" font-family="&#39;IBM Plex Mono&#39;, ui-monospace, Menlo, monospace" font-weight="700" font-size="9" letter-spacing="1.5" fill="#FA5C36">BIZ</text>
  </g>
</svg>
